<svg width="33" height="33" viewBox="0 0 33 33" fill="none" xmlns="http://www.w3.org/2000/svg">
<path d="M13.171 13.0438C13.171 11.7105 12.1618 11.394 11.0411 11.394H8.12476V14.7694H11.2694C12.3818 14.7694 13.171 14.2716 13.171 13.0438Z" fill="#46586C"/>
<path d="M22.9158 14.793C21.5683 14.793 20.6691 15.6524 20.5811 17.031H25.1626C25.0374 15.637 24.3307 14.793 22.9158 14.793Z" fill="#46586C"/>
<path d="M11.5057 17.1738H8.11768V21.1596H11.4397C12.7074 21.1596 13.7387 20.6997 13.7387 19.2455C13.7373 17.7617 12.8752 17.1809 11.5057 17.1738Z" fill="#46586C"/>
<path d="M27.1562 0H5.84375C2.6125 0 0 2.67266 0 5.97832V26.9376C0 30.2433 2.6125 32.916 5.84375 32.916H27.1562C30.3875 32.916 33 30.2433 33 26.9376V5.97832C33 2.67266 30.3875 0 27.1562 0ZM20.0131 9.68348H25.7441V11.107H20.0131V9.68348ZM11.8663 23.632H5.00912V9.16301H11.6751C14.0993 9.16301 16.1975 9.86353 16.1975 12.7416C16.1975 14.1961 15.5348 14.9121 14.267 15.5296C16.005 16.0346 16.8451 17.603 16.8451 19.419C16.8465 22.3589 14.4375 23.6165 11.8663 23.632ZM27.9689 18.8465H20.5879C20.5879 20.519 21.45 21.5065 23.1 21.5065C23.9539 21.5065 25.0525 21.0395 25.3247 20.142H27.8066C27.0407 22.546 25.4568 23.6685 23.012 23.6685C19.7863 23.6685 17.7746 21.4305 17.7746 18.1671C17.7746 15.0176 19.8894 12.622 23.012 12.622C26.2157 12.622 27.9909 15.206 27.9909 18.3035C27.9909 18.485 27.9757 18.6735 27.9689 18.8465Z" fill="#46586C"/>
</svg>
